<svg width="1024" height="1024" viewBox="0 0 1024 1024" fill="none" xmlns="http://www.w3.org/2000/svg">
<rect width="1024" height="1024" fill="#11284E"/>
<g filter="url(#filter0_d_4009_193)">
<path d="M609.804 529.866C610.645 529.869 611.486 529.871 612.352 529.873C613.681 529.871 613.681 529.871 615.037 529.868C618.031 529.864 621.024 529.867 624.018 529.871C626.154 529.869 628.291 529.867 630.427 529.865C636.247 529.861 642.067 529.863 647.887 529.866C653.963 529.868 660.039 529.866 666.115 529.864C676.321 529.862 686.527 529.865 696.733 529.87C708.551 529.875 720.369 529.873 732.187 529.868C742.314 529.863 752.44 529.863 762.567 529.865C768.623 529.867 774.68 529.867 780.737 529.864C786.43 529.861 792.123 529.863 797.816 529.869C799.912 529.87 802.008 529.87 804.104 529.867C806.952 529.865 809.8 529.868 812.648 529.873C813.489 529.871 814.33 529.869 815.196 529.866C820.886 529.886 820.886 529.886 822 531C822.655 540.268 821.473 549.205 819.875 558.313C819.763 558.96 819.652 559.607 819.537 560.275C809.619 617.524 784.178 669.327 746 713C744.879 714.29 744.879 714.29 743.734 715.605C735.443 724.986 726.628 733.987 717 742C716.502 742.428 716.004 742.856 715.49 743.297C703.416 753.658 690.402 762.451 677 771C676.231 771.491 675.461 771.983 674.668 772.489C639.267 794.811 591.073 815.235 548.5 815.125C547.479 815.128 546.458 815.13 545.406 815.133C543 815 543 815 542 814C541.902 811.546 541.87 809.121 541.88 806.667C541.879 805.89 541.878 805.113 541.877 804.313C541.876 801.69 541.881 799.068 541.887 796.445C541.887 794.573 541.887 792.701 541.886 790.829C541.886 785.73 541.892 780.631 541.899 775.532C541.905 770.21 541.906 764.887 541.907 759.565C541.91 749.478 541.918 739.392 541.928 729.305C541.939 717.825 541.945 706.346 541.95 694.866C541.96 671.244 541.978 647.622 542 624C542.539 623.723 543.077 623.446 543.632 623.16C546.11 621.882 548.585 620.595 551.059 619.309C551.906 618.873 552.753 618.437 553.625 617.989C574.877 606.904 590.41 588.855 598 566C601.13 555.498 602.485 545.112 602.824 534.184C603.118 528.858 604.97 529.883 609.804 529.866Z" fill="#FBFBFA"/>
<path d="M606.709 530.299C607.521 530.309 608.605 530.37 609.803 530.366V530.367C610.643 530.369 611.484 530.37 612.351 530.373H612.353C613.682 530.37 613.682 530.371 615.038 530.369L624.018 530.371C626.154 530.369 628.291 530.368 630.428 530.366C636.247 530.361 642.067 530.363 647.887 530.366C653.963 530.368 660.039 530.366 666.115 530.365C676.321 530.363 686.527 530.365 696.732 530.37C708.551 530.375 720.369 530.373 732.188 530.368C742.314 530.363 752.44 530.363 762.566 530.366C768.623 530.367 774.68 530.367 780.737 530.364C786.43 530.361 792.123 530.363 797.815 530.369C799.912 530.37 802.008 530.37 804.104 530.368C806.952 530.365 809.799 530.368 812.647 530.373H812.649C813.489 530.37 814.329 530.369 815.194 530.367C818.066 530.377 819.432 530.383 820.231 530.516C820.609 530.579 820.823 530.665 820.998 530.777C821.158 530.879 821.301 531.014 821.513 531.224C822.134 540.362 820.968 549.191 819.383 558.226V558.227C819.271 558.874 819.159 559.522 819.044 560.189C809.143 617.344 783.744 669.064 745.624 712.671L745.623 712.672C744.503 713.961 744.501 713.961 743.359 715.274C735.078 724.642 726.283 733.624 716.681 741.616L716.674 741.621C716.176 742.049 715.677 742.477 715.164 742.917C703.87 752.609 691.747 760.929 679.238 768.973L676.731 770.579C675.963 771.069 675.193 771.56 674.401 772.066C639.037 794.365 590.938 814.735 548.501 814.625H548.499C547.487 814.628 546.474 814.63 545.432 814.632C544.193 814.564 543.679 814.532 543.334 814.417C543.068 814.329 542.907 814.193 542.493 813.784C542.402 811.406 542.37 809.051 542.38 806.668V806.667C542.379 805.89 542.378 805.113 542.377 804.313C542.375 801.691 542.381 799.069 542.387 796.446V796.445C542.387 794.573 542.386 792.701 542.386 790.829L542.398 775.533C542.405 770.21 542.405 764.887 542.406 759.565C542.409 749.479 542.418 739.392 542.428 729.306C542.439 717.826 542.445 706.346 542.45 694.866C542.461 671.346 542.477 647.825 542.499 624.305L543.861 623.605C546.34 622.326 548.815 621.039 551.289 619.752L551.288 619.751C552.135 619.316 552.982 618.882 553.854 618.433L553.856 618.432C575.222 607.288 590.843 589.138 598.475 566.158L598.478 566.15L598.479 566.143C601.625 555.59 602.983 545.16 603.324 534.199L603.323 534.198C603.396 532.891 603.565 532.034 603.816 531.467C604.056 530.929 604.368 530.658 604.786 530.502C605.242 530.332 605.852 530.289 606.709 530.299Z" stroke="black"/>
</g>
<g filter="url(#filter1_d_4009_193)">
<path d="M209.804 529.866C210.645 529.868 211.486 529.871 212.352 529.873C213.681 529.871 213.681 529.871 215.037 529.868C218.031 529.864 221.024 529.867 224.018 529.871C226.154 529.869 228.291 529.867 230.427 529.865C236.247 529.861 242.067 529.863 247.887 529.866C253.963 529.868 260.039 529.866 266.115 529.864C276.321 529.862 286.527 529.865 296.733 529.87C308.551 529.875 320.369 529.873 332.187 529.868C342.314 529.863 352.44 529.863 362.567 529.865C368.623 529.867 374.68 529.867 380.737 529.864C386.43 529.861 392.123 529.863 397.816 529.869C399.912 529.87 402.008 529.87 404.104 529.867C406.952 529.865 409.8 529.868 412.648 529.873C413.91 529.87 413.91 529.87 415.196 529.866C420.886 529.886 420.886 529.886 422 531C422.156 532.641 422.253 534.287 422.324 535.934C423.654 560.636 430.129 581.433 447 600C447.551 600.632 448.101 601.263 448.668 601.914C456.111 609.964 465.682 615.525 475.441 620.285C476.173 620.646 476.904 621.007 477.657 621.379C479.436 622.257 481.218 623.129 483 624C483.023 648.756 483.041 673.511 483.052 698.267C483.057 709.761 483.064 721.254 483.076 732.748C483.085 742.762 483.092 752.776 483.094 762.79C483.095 768.095 483.099 773.401 483.106 778.707C483.113 783.695 483.115 788.683 483.113 793.671C483.113 795.507 483.115 797.343 483.119 799.179C483.124 801.675 483.123 804.171 483.12 806.667C483.125 807.771 483.125 807.771 483.129 808.898C483.114 813.886 483.114 813.886 482 815C473.447 815.799 465.272 814.184 456.938 812.438C456.289 812.304 455.64 812.17 454.971 812.032C397.842 800.231 344.377 775.825 301.649 735.496C299.192 733.18 296.673 730.964 294.125 728.75C283.474 719.159 273.993 708.339 265.408 696.879C264.442 695.589 263.469 694.304 262.49 693.023C232.355 653.478 213.903 607.576 205.125 558.875C204.909 557.702 204.694 556.529 204.472 555.321C203.09 547.213 202.47 539.226 203 531C204.827 529.173 207.372 529.875 209.804 529.866Z" fill="#FBFAFA"/>
<path d="M206.198 530.25C206.753 530.225 207.333 530.253 207.942 530.29C208.543 530.325 209.176 530.368 209.803 530.366V530.367C210.643 530.369 211.484 530.37 212.351 530.373H212.353C213.682 530.37 213.682 530.371 215.038 530.369L224.018 530.371C226.154 530.369 228.291 530.368 230.428 530.366C236.247 530.361 242.067 530.363 247.887 530.366C253.963 530.368 260.039 530.366 266.115 530.365C276.321 530.363 286.527 530.365 296.732 530.37C308.551 530.375 320.369 530.373 332.188 530.368C342.314 530.363 352.44 530.363 362.566 530.366C368.623 530.367 374.68 530.367 380.737 530.364C386.43 530.361 392.123 530.363 397.815 530.369C399.912 530.37 402.008 530.37 404.104 530.368C406.952 530.365 409.799 530.368 412.647 530.373H412.649C413.91 530.369 413.911 530.37 415.194 530.367C418.066 530.377 419.432 530.383 420.231 530.516C420.609 530.579 420.823 530.665 420.998 530.777C421.159 530.88 421.303 531.016 421.518 531.228C421.663 532.797 421.756 534.374 421.825 535.956V535.96C423.139 560.357 429.46 581.008 445.843 599.459L446.63 600.336C447.178 600.965 447.726 601.595 448.291 602.243L448.296 602.249L448.301 602.253C455.807 610.372 465.445 615.965 475.22 620.733V620.734C475.951 621.095 476.683 621.456 477.437 621.828C479.123 622.659 480.812 623.485 482.5 624.311C482.523 648.963 482.541 673.615 482.552 698.267C482.557 709.761 482.564 721.255 482.575 732.749C482.585 742.762 482.592 752.776 482.594 762.79C482.595 768.095 482.598 773.402 482.605 778.708C482.612 783.695 482.615 788.683 482.613 793.67C482.614 795.507 482.615 797.344 482.619 799.18L482.62 806.667V806.668C482.624 807.773 482.624 807.773 482.629 808.9C482.621 811.422 482.616 812.606 482.485 813.311C482.425 813.638 482.341 813.832 482.229 814C482.124 814.156 481.984 814.302 481.771 814.517C473.369 815.268 465.32 813.683 457.04 811.948H457.038L455.072 811.542C398.015 799.756 344.641 775.386 301.992 735.132H301.991C300.143 733.39 298.26 731.705 296.359 730.037L294.453 728.373C284.498 719.407 275.563 709.361 267.426 698.716L265.809 696.58C264.841 695.288 263.867 694.001 262.888 692.719H262.887C232.807 653.246 214.383 607.42 205.617 558.787V558.785L204.964 555.237H204.965C203.599 547.222 202.982 539.337 203.487 531.226C204.252 530.533 205.16 530.299 206.198 530.25Z" stroke="black"/>
</g>
<g filter="url(#filter2_d_4009_193)">
<mask id="path-5-inside-1_4009_193" fill="white">
<path d="M339.605 310.499C341.142 310.495 342.679 310.489 344.217 310.482C348.406 310.467 352.594 310.477 356.783 310.492C361.314 310.503 365.845 310.491 370.376 310.482C379.239 310.468 388.101 310.476 396.963 310.491C407.293 310.508 417.622 310.504 427.952 310.501C446.387 310.495 464.822 310.509 483.257 310.533C501.129 310.557 519.001 310.564 536.873 310.554C556.356 310.543 575.838 310.541 595.32 310.555C597.398 310.557 599.477 310.558 601.556 310.56C603.09 310.561 603.09 310.561 604.655 310.562C611.849 310.567 619.042 310.565 626.236 310.561C635.006 310.556 643.777 310.562 652.547 310.581C657.018 310.591 661.49 310.596 665.961 310.589C670.06 310.581 674.159 310.588 678.257 310.606C679.734 310.61 681.211 310.609 682.688 310.603C700.708 310.529 716.623 314.999 729.868 327.608C740.885 338.695 747.889 353.53 748.313 369.313C748.092 384.323 742.393 396.296 735 409C734.492 409.882 733.983 410.763 733.459 411.671C730.582 416.656 727.68 421.625 724.762 426.586C720.861 433.221 717.023 439.89 713.188 446.563C709.058 453.731 704.925 460.895 700.688 468C700.333 468.599 699.978 469.198 699.612 469.815C698.216 472.138 696.927 474.073 695 476C692.406 476.241 692.406 476.241 689.082 476.227C687.841 476.227 686.599 476.227 685.321 476.227C683.961 476.216 682.602 476.206 681.242 476.195C679.855 476.192 678.468 476.189 677.081 476.187C673.428 476.179 669.775 476.159 666.122 476.137C662.395 476.117 658.668 476.108 654.942 476.098C647.628 476.076 640.314 476.042 633 476C633.805 472.457 635.115 469.809 636.957 466.66C637.569 465.608 638.181 464.556 638.811 463.473C639.471 462.347 640.132 461.222 640.813 460.063C641.5 458.883 642.187 457.703 642.873 456.523C643.917 454.729 644.961 452.934 646.007 451.141C649.038 445.946 652.025 440.727 655 435.5C658.895 428.663 662.825 421.846 666.773 415.039C669.309 410.66 671.831 406.274 674.347 401.884C675.37 400.099 676.396 398.315 677.427 396.534C683.478 386.423 683.478 386.423 685 375C683.235 372.079 682.042 370.521 679 369C677.288 368.898 675.573 368.861 673.858 368.853C672.769 368.846 671.679 368.839 670.557 368.831C668.756 368.827 668.756 368.827 666.919 368.823C665.659 368.816 664.398 368.81 663.1 368.803C659.637 368.786 656.174 368.775 652.711 368.767C650.548 368.762 648.385 368.756 646.221 368.749C639.454 368.73 632.686 368.716 625.919 368.708C618.105 368.698 610.292 368.672 602.478 368.631C596.44 368.601 590.402 368.586 584.364 368.583C580.757 368.581 577.15 368.572 573.543 368.547C569.518 368.519 565.494 368.523 561.47 368.53C560.275 368.517 559.081 368.504 557.85 368.491C551.51 368.478 551.51 368.478 545.783 370.904C542.551 374.703 542.831 377.966 542.795 382.754C542.785 383.555 542.775 384.355 542.765 385.179C542.733 387.83 542.708 390.481 542.684 393.133C542.663 394.968 542.642 396.804 542.621 398.64C542.566 403.476 542.516 408.313 542.468 413.149C542.418 418.083 542.362 423.016 542.307 427.949C542.199 437.633 542.098 447.316 542 457C541.413 456.881 540.825 456.762 540.22 456.64C537.509 456.095 534.796 455.561 532.082 455.027C531.159 454.84 530.235 454.653 529.284 454.46C514.705 451.615 501.398 452.765 487 456C485.334 456.336 483.668 456.67 482 457C481.992 455.982 481.984 454.963 481.976 453.914C481.898 444.32 481.81 434.726 481.713 425.133C481.663 420.201 481.616 415.268 481.578 410.336C481.541 405.577 481.495 400.818 481.442 396.058C481.424 394.242 481.408 392.426 481.397 390.609C481.38 388.066 481.351 385.524 481.319 382.981C481.317 382.229 481.315 381.477 481.312 380.702C481.259 375.513 481.259 375.513 479 371C475.817 369.017 473.334 368.744 469.618 368.726C468.525 368.716 467.433 368.706 466.308 368.696C465.115 368.695 463.921 368.694 462.692 368.694C461.431 368.685 460.171 368.677 458.872 368.668C455.418 368.646 451.963 368.638 448.508 368.633C446.35 368.629 444.191 368.623 442.032 368.616C434.498 368.591 426.965 368.578 419.431 368.574C412.411 368.571 405.392 368.541 398.372 368.499C392.342 368.464 386.312 368.449 380.282 368.448C376.682 368.447 373.082 368.439 369.482 368.41C365.467 368.379 361.453 368.388 357.438 368.401C356.247 368.386 355.055 368.371 353.828 368.356C347.353 368.347 347.353 368.347 341.789 371.37C339.6 374.589 338.926 376.08 339 380C341.426 387.9 345.633 394.928 349.813 402C350.818 403.721 351.823 405.442 352.827 407.163C353.864 408.938 354.904 410.711 355.944 412.483C359.182 418.012 362.368 423.571 365.563 429.125C371.155 438.827 376.782 448.507 382.434 458.174C383.491 459.982 384.545 461.792 385.595 463.603C386.484 465.119 387.389 466.626 388.315 468.12C389.283 469.704 390.154 471.348 391 473C390.67 473.99 390.34 474.98 390 476C382.116 476.116 374.232 476.205 366.347 476.259C362.686 476.285 359.025 476.321 355.364 476.377C351.83 476.432 348.297 476.461 344.763 476.474C342.76 476.488 340.757 476.527 338.754 476.567C337.533 476.567 336.312 476.567 335.054 476.568C333.979 476.579 332.904 476.59 331.797 476.601C328.032 475.792 327.07 474.156 325 471C323.927 469.281 322.891 467.537 321.891 465.773C321.309 464.755 320.728 463.737 320.128 462.688C319.509 461.595 318.889 460.502 318.25 459.375C316.907 457.024 315.562 454.674 314.215 452.324C313.869 451.721 313.524 451.117 313.168 450.496C309.451 444.019 305.634 437.603 301.813 431.188C296.925 422.957 292.044 414.723 287.25 406.438C286.773 405.624 286.296 404.81 285.804 403.971C276.983 388.623 274.081 371.484 277.684 353.918C278.591 350.806 279.658 347.949 281 345C281.602 343.598 281.602 343.598 282.215 342.168C288.453 329.241 300.341 319.123 313.659 313.971C322.413 311.006 330.425 310.434 339.605 310.499Z"/>
</mask>
<path d="M339.605 310.499C341.142 310.495 342.679 310.489 344.217 310.482C348.406 310.467 352.594 310.477 356.783 310.492C361.314 310.503 365.845 310.491 370.376 310.482C379.239 310.468 388.101 310.476 396.963 310.491C407.293 310.508 417.622 310.504 427.952 310.501C446.387 310.495 464.822 310.509 483.257 310.533C501.129 310.557 519.001 310.564 536.873 310.554C556.356 310.543 575.838 310.541 595.32 310.555C597.398 310.557 599.477 310.558 601.556 310.56C603.09 310.561 603.09 310.561 604.655 310.562C611.849 310.567 619.042 310.565 626.236 310.561C635.006 310.556 643.777 310.562 652.547 310.581C657.018 310.591 661.49 310.596 665.961 310.589C670.06 310.581 674.159 310.588 678.257 310.606C679.734 310.61 681.211 310.609 682.688 310.603C700.708 310.529 716.623 314.999 729.868 327.608C740.885 338.695 747.889 353.53 748.313 369.313C748.092 384.323 742.393 396.296 735 409C734.492 409.882 733.983 410.763 733.459 411.671C730.582 416.656 727.68 421.625 724.762 426.586C720.861 433.221 717.023 439.89 713.188 446.563C709.058 453.731 704.925 460.895 700.688 468C700.333 468.599 699.978 469.198 699.612 469.815C698.216 472.138 696.927 474.073 695 476C692.406 476.241 692.406 476.241 689.082 476.227C687.841 476.227 686.599 476.227 685.321 476.227C683.961 476.216 682.602 476.206 681.242 476.195C679.855 476.192 678.468 476.189 677.081 476.187C673.428 476.179 669.775 476.159 666.122 476.137C662.395 476.117 658.668 476.108 654.942 476.098C647.628 476.076 640.314 476.042 633 476C633.805 472.457 635.115 469.809 636.957 466.66C637.569 465.608 638.181 464.556 638.811 463.473C639.471 462.347 640.132 461.222 640.813 460.063C641.5 458.883 642.187 457.703 642.873 456.523C643.917 454.729 644.961 452.934 646.007 451.141C649.038 445.946 652.025 440.727 655 435.5C658.895 428.663 662.825 421.846 666.773 415.039C669.309 410.66 671.831 406.274 674.347 401.884C675.37 400.099 676.396 398.315 677.427 396.534C683.478 386.423 683.478 386.423 685 375C683.235 372.079 682.042 370.521 679 369C677.288 368.898 675.573 368.861 673.858 368.853C672.769 368.846 671.679 368.839 670.557 368.831C668.756 368.827 668.756 368.827 666.919 368.823C665.659 368.816 664.398 368.81 663.1 368.803C659.637 368.786 656.174 368.775 652.711 368.767C650.548 368.762 648.385 368.756 646.221 368.749C639.454 368.73 632.686 368.716 625.919 368.708C618.105 368.698 610.292 368.672 602.478 368.631C596.44 368.601 590.402 368.586 584.364 368.583C580.757 368.581 577.15 368.572 573.543 368.547C569.518 368.519 565.494 368.523 561.47 368.53C560.275 368.517 559.081 368.504 557.85 368.491C551.51 368.478 551.51 368.478 545.783 370.904C542.551 374.703 542.831 377.966 542.795 382.754C542.785 383.555 542.775 384.355 542.765 385.179C542.733 387.83 542.708 390.481 542.684 393.133C542.663 394.968 542.642 396.804 542.621 398.64C542.566 403.476 542.516 408.313 542.468 413.149C542.418 418.083 542.362 423.016 542.307 427.949C542.199 437.633 542.098 447.316 542 457C541.413 456.881 540.825 456.762 540.22 456.64C537.509 456.095 534.796 455.561 532.082 455.027C531.159 454.84 530.235 454.653 529.284 454.46C514.705 451.615 501.398 452.765 487 456C485.334 456.336 483.668 456.67 482 457C481.992 455.982 481.984 454.963 481.976 453.914C481.898 444.32 481.81 434.726 481.713 425.133C481.663 420.201 481.616 415.268 481.578 410.336C481.541 405.577 481.495 400.818 481.442 396.058C481.424 394.242 481.408 392.426 481.397 390.609C481.38 388.066 481.351 385.524 481.319 382.981C481.317 382.229 481.315 381.477 481.312 380.702C481.259 375.513 481.259 375.513 479 371C475.817 369.017 473.334 368.744 469.618 368.726C468.525 368.716 467.433 368.706 466.308 368.696C465.115 368.695 463.921 368.694 462.692 368.694C461.431 368.685 460.171 368.677 458.872 368.668C455.418 368.646 451.963 368.638 448.508 368.633C446.35 368.629 444.191 368.623 442.032 368.616C434.498 368.591 426.965 368.578 419.431 368.574C412.411 368.571 405.392 368.541 398.372 368.499C392.342 368.464 386.312 368.449 380.282 368.448C376.682 368.447 373.082 368.439 369.482 368.41C365.467 368.379 361.453 368.388 357.438 368.401C356.247 368.386 355.055 368.371 353.828 368.356C347.353 368.347 347.353 368.347 341.789 371.37C339.6 374.589 338.926 376.08 339 380C341.426 387.9 345.633 394.928 349.813 402C350.818 403.721 351.823 405.442 352.827 407.163C353.864 408.938 354.904 410.711 355.944 412.483C359.182 418.012 362.368 423.571 365.563 429.125C371.155 438.827 376.782 448.507 382.434 458.174C383.491 459.982 384.545 461.792 385.595 463.603C386.484 465.119 387.389 466.626 388.315 468.12C389.283 469.704 390.154 471.348 391 473C390.67 473.99 390.34 474.98 390 476C382.116 476.116 374.232 476.205 366.347 476.259C362.686 476.285 359.025 476.321 355.364 476.377C351.83 476.432 348.297 476.461 344.763 476.474C342.76 476.488 340.757 476.527 338.754 476.567C337.533 476.567 336.312 476.567 335.054 476.568C333.979 476.579 332.904 476.59 331.797 476.601C328.032 475.792 327.07 474.156 325 471C323.927 469.281 322.891 467.537 321.891 465.773C321.309 464.755 320.728 463.737 320.128 462.688C319.509 461.595 318.889 460.502 318.25 459.375C316.907 457.024 315.562 454.674 314.215 452.324C313.869 451.721 313.524 451.117 313.168 450.496C309.451 444.019 305.634 437.603 301.813 431.188C296.925 422.957 292.044 414.723 287.25 406.438C286.773 405.624 286.296 404.81 285.804 403.971C276.983 388.623 274.081 371.484 277.684 353.918C278.591 350.806 279.658 347.949 281 345C281.602 343.598 281.602 343.598 282.215 342.168C288.453 329.241 300.341 319.123 313.659 313.971C322.413 311.006 330.425 310.434 339.605 310.499Z" fill="#0776BE"/>
<path d="M339.605 310.499C341.142 310.495 342.679 310.489 344.217 310.482C348.406 310.467 352.594 310.477 356.783 310.492C361.314 310.503 365.845 310.491 370.376 310.482C379.239 310.468 388.101 310.476 396.963 310.491C407.293 310.508 417.622 310.504 427.952 310.501C446.387 310.495 464.822 310.509 483.257 310.533C501.129 310.557 519.001 310.564 536.873 310.554C556.356 310.543 575.838 310.541 595.32 310.555C597.398 310.557 599.477 310.558 601.556 310.56C603.09 310.561 603.09 310.561 604.655 310.562C611.849 310.567 619.042 310.565 626.236 310.561C635.006 310.556 643.777 310.562 652.547 310.581C657.018 310.591 661.49 310.596 665.961 310.589C670.06 310.581 674.159 310.588 678.257 310.606C679.734 310.61 681.211 310.609 682.688 310.603C700.708 310.529 716.623 314.999 729.868 327.608C740.885 338.695 747.889 353.53 748.313 369.313C748.092 384.323 742.393 396.296 735 409C734.492 409.882 733.983 410.763 733.459 411.671C730.582 416.656 727.68 421.625 724.762 426.586C720.861 433.221 717.023 439.89 713.188 446.563C709.058 453.731 704.925 460.895 700.688 468C700.333 468.599 699.978 469.198 699.612 469.815C698.216 472.138 696.927 474.073 695 476C692.406 476.241 692.406 476.241 689.082 476.227C687.841 476.227 686.599 476.227 685.321 476.227C683.961 476.216 682.602 476.206 681.242 476.195C679.855 476.192 678.468 476.189 677.081 476.187C673.428 476.179 669.775 476.159 666.122 476.137C662.395 476.117 658.668 476.108 654.942 476.098C647.628 476.076 640.314 476.042 633 476C633.805 472.457 635.115 469.809 636.957 466.66C637.569 465.608 638.181 464.556 638.811 463.473C639.471 462.347 640.132 461.222 640.813 460.063C641.5 458.883 642.187 457.703 642.873 456.523C643.917 454.729 644.961 452.934 646.007 451.141C649.038 445.946 652.025 440.727 655 435.5C658.895 428.663 662.825 421.846 666.773 415.039C669.309 410.66 671.831 406.274 674.347 401.884C675.37 400.099 676.396 398.315 677.427 396.534C683.478 386.423 683.478 386.423 685 375C683.235 372.079 682.042 370.521 679 369C677.288 368.898 675.573 368.861 673.858 368.853C672.769 368.846 671.679 368.839 670.557 368.831C668.756 368.827 668.756 368.827 666.919 368.823C665.659 368.816 664.398 368.81 663.1 368.803C659.637 368.786 656.174 368.775 652.711 368.767C650.548 368.762 648.385 368.756 646.221 368.749C639.454 368.73 632.686 368.716 625.919 368.708C618.105 368.698 610.292 368.672 602.478 368.631C596.44 368.601 590.402 368.586 584.364 368.583C580.757 368.581 577.15 368.572 573.543 368.547C569.518 368.519 565.494 368.523 561.47 368.53C560.275 368.517 559.081 368.504 557.85 368.491C551.51 368.478 551.51 368.478 545.783 370.904C542.551 374.703 542.831 377.966 542.795 382.754C542.785 383.555 542.775 384.355 542.765 385.179C542.733 387.83 542.708 390.481 542.684 393.133C542.663 394.968 542.642 396.804 542.621 398.64C542.566 403.476 542.516 408.313 542.468 413.149C542.418 418.083 542.362 423.016 542.307 427.949C542.199 437.633 542.098 447.316 542 457C541.413 456.881 540.825 456.762 540.22 456.64C537.509 456.095 534.796 455.561 532.082 455.027C531.159 454.84 530.235 454.653 529.284 454.46C514.705 451.615 501.398 452.765 487 456C485.334 456.336 483.668 456.67 482 457C481.992 455.982 481.984 454.963 481.976 453.914C481.898 444.32 481.81 434.726 481.713 425.133C481.663 420.201 481.616 415.268 481.578 410.336C481.541 405.577 481.495 400.818 481.442 396.058C481.424 394.242 481.408 392.426 481.397 390.609C481.38 388.066 481.351 385.524 481.319 382.981C481.317 382.229 481.315 381.477 481.312 380.702C481.259 375.513 481.259 375.513 479 371C475.817 369.017 473.334 368.744 469.618 368.726C468.525 368.716 467.433 368.706 466.308 368.696C465.115 368.695 463.921 368.694 462.692 368.694C461.431 368.685 460.171 368.677 458.872 368.668C455.418 368.646 451.963 368.638 448.508 368.633C446.35 368.629 444.191 368.623 442.032 368.616C434.498 368.591 426.965 368.578 419.431 368.574C412.411 368.571 405.392 368.541 398.372 368.499C392.342 368.464 386.312 368.449 380.282 368.448C376.682 368.447 373.082 368.439 369.482 368.41C365.467 368.379 361.453 368.388 357.438 368.401C356.247 368.386 355.055 368.371 353.828 368.356C347.353 368.347 347.353 368.347 341.789 371.37C339.6 374.589 338.926 376.08 339 380C341.426 387.9 345.633 394.928 349.813 402C350.818 403.721 351.823 405.442 352.827 407.163C353.864 408.938 354.904 410.711 355.944 412.483C359.182 418.012 362.368 423.571 365.563 429.125C371.155 438.827 376.782 448.507 382.434 458.174C383.491 459.982 384.545 461.792 385.595 463.603C386.484 465.119 387.389 466.626 388.315 468.12C389.283 469.704 390.154 471.348 391 473C390.67 473.99 390.34 474.98 390 476C382.116 476.116 374.232 476.205 366.347 476.259C362.686 476.285 359.025 476.321 355.364 476.377C351.83 476.432 348.297 476.461 344.763 476.474C342.76 476.488 340.757 476.527 338.754 476.567C337.533 476.567 336.312 476.567 335.054 476.568C333.979 476.579 332.904 476.59 331.797 476.601C328.032 475.792 327.07 474.156 325 471C323.927 469.281 322.891 467.537 321.891 465.773C321.309 464.755 320.728 463.737 320.128 462.688C319.509 461.595 318.889 460.502 318.25 459.375C316.907 457.024 315.562 454.674 314.215 452.324C313.869 451.721 313.524 451.117 313.168 450.496C309.451 444.019 305.634 437.603 301.813 431.188C296.925 422.957 292.044 414.723 287.25 406.438C286.773 405.624 286.296 404.81 285.804 403.971C276.983 388.623 274.081 371.484 277.684 353.918C278.591 350.806 279.658 347.949 281 345C281.602 343.598 281.602 343.598 282.215 342.168C288.453 329.241 300.341 319.123 313.659 313.971C322.413 311.006 330.425 310.434 339.605 310.499Z" stroke="black" stroke-width="2" mask="url(#path-5-inside-1_4009_193)"/>
</g>
<g filter="url(#filter3_d_4009_193)">
<path d="M544 495C554.135 503.485 562.877 514.317 564.302 527.874C564.438 531.027 564.468 534.157 564.438 537.312C564.429 538.422 564.421 539.532 564.413 540.676C564.107 555.467 559.291 565.379 549.313 576.187C538.931 586.032 525.552 591.029 511.313 591.437C495.481 590.837 482.857 584.395 472 573C461.985 561.637 458.939 548.287 459.578 533.531C460.663 518.981 467.5 506.863 478 497C497.438 481.73 523.658 480.97 544 495Z" fill="#72808D"/>
<path d="M478.326 497.379C497.585 482.261 523.548 481.51 543.702 495.402C553.785 503.849 562.395 514.564 563.803 527.916C563.937 531.051 563.968 534.165 563.938 537.307V537.308L563.912 540.673C563.608 555.312 558.857 565.108 548.954 575.838C538.675 585.579 525.425 590.53 511.304 590.936C496.121 590.353 483.919 584.354 473.378 573.701L472.362 572.655C462.47 561.424 459.444 548.225 460.077 533.568C461.15 519.173 467.908 507.17 478.326 497.379Z" stroke="black"/>
</g>
<defs>
<filter id="filter0_d_4009_193" x="537.877" y="529.797" width="288.308" height="293.335" filterUnits="userSpaceOnUse" color-interpolation-filters="sRGB">
<feFlood flood-opacity="0" result="BackgroundImageFix"/>
<feColorMatrix in="SourceAlpha" type="matrix" values="0 0 0 0 0 0 0 0 0 0 0 0 0 0 0 0 0 0 127 0" result="hardAlpha"/>
<feOffset dy="4"/>
<feGaussianBlur stdDeviation="2"/>
<feComposite in2="hardAlpha" operator="out"/>
<feColorMatrix type="matrix" values="0 0 0 0 0 0 0 0 0 0 0 0 0 0 0 0 0 0 0.25 0"/>
<feBlend mode="normal" in2="BackgroundImageFix" result="effect1_dropShadow_4009_193"/>
<feBlend mode="normal" in="SourceGraphic" in2="effect1_dropShadow_4009_193" result="shape"/>
</filter>
<filter id="filter1_d_4009_193" x="198.812" y="529.741" width="288.317" height="293.469" filterUnits="userSpaceOnUse" color-interpolation-filters="sRGB">
<feFlood flood-opacity="0" result="BackgroundImageFix"/>
<feColorMatrix in="SourceAlpha" type="matrix" values="0 0 0 0 0 0 0 0 0 0 0 0 0 0 0 0 0 0 127 0" result="hardAlpha"/>
<feOffset dy="4"/>
<feGaussianBlur stdDeviation="2"/>
<feComposite in2="hardAlpha" operator="out"/>
<feColorMatrix type="matrix" values="0 0 0 0 0 0 0 0 0 0 0 0 0 0 0 0 0 0 0.25 0"/>
<feBlend mode="normal" in2="BackgroundImageFix" result="effect1_dropShadow_4009_193"/>
<feBlend mode="normal" in="SourceGraphic" in2="effect1_dropShadow_4009_193" result="shape"/>
</filter>
<filter id="filter2_d_4009_193" x="272.174" y="310.475" width="480.138" height="174.127" filterUnits="userSpaceOnUse" color-interpolation-filters="sRGB">
<feFlood flood-opacity="0" result="BackgroundImageFix"/>
<feColorMatrix in="SourceAlpha" type="matrix" values="0 0 0 0 0 0 0 0 0 0 0 0 0 0 0 0 0 0 127 0" result="hardAlpha"/>
<feOffset dy="4"/>
<feGaussianBlur stdDeviation="2"/>
<feComposite in2="hardAlpha" operator="out"/>
<feColorMatrix type="matrix" values="0 0 0 0 0 0 0 0 0 0 0 0 0 0 0 0 0 0 0.25 0"/>
<feBlend mode="normal" in2="BackgroundImageFix" result="effect1_dropShadow_4009_193"/>
<feBlend mode="normal" in="SourceGraphic" in2="effect1_dropShadow_4009_193" result="shape"/>
</filter>
<filter id="filter3_d_4009_193" x="455.497" y="484.988" width="112.951" height="114.449" filterUnits="userSpaceOnUse" color-interpolation-filters="sRGB">
<feFlood flood-opacity="0" result="BackgroundImageFix"/>
<feColorMatrix in="SourceAlpha" type="matrix" values="0 0 0 0 0 0 0 0 0 0 0 0 0 0 0 0 0 0 127 0" result="hardAlpha"/>
<feOffset dy="4"/>
<feGaussianBlur stdDeviation="2"/>
<feComposite in2="hardAlpha" operator="out"/>
<feColorMatrix type="matrix" values="0 0 0 0 0 0 0 0 0 0 0 0 0 0 0 0 0 0 0.25 0"/>
<feBlend mode="normal" in2="BackgroundImageFix" result="effect1_dropShadow_4009_193"/>
<feBlend mode="normal" in="SourceGraphic" in2="effect1_dropShadow_4009_193" result="shape"/>
</filter>
</defs>
</svg>
